# xmcd CD database file
#
# Track frame offsets:
#	183
#	14770
#	25370
#	40985
#	57040
#	69963
#	85773
#	91343
#	106113
#	115013
#	130470
#	141803
#	156678
#	167955
#	177023
#	184128
#	199783
#	212955
#	221673
#	232313
#
# Disc length: 3286 seconds
#
# Revision: 5
# Processed by: cddbd v1.5.1PL0 Copyright (c) Steve Scherf et al.
# Submitted via: CDex 1.51
#
DISCID=280cd414
DTITLE=Billie Holiday - The World Of Billie Holiday: Lover Man
DYEAR=1992
DGENRE=Jazz
TTITLE0=Lover Man
TTITLE1='Taint Nobody's Business If I Do
TTITLE2=Stormy Weather
TTITLE3=Do Nothing Till You Hear From Me
TTITLE4=My Man
TTITLE5=Willow Weep For Me
TTITLE6=You're Driving Me Crazy
TTITLE7=They Can't Take That Away From Me
TTITLE8=When Your Lover Has Gone
TTITLE9=I Cover The Waterfront
TTITLE10=Nice Work If You Can Get It
TTITLE11=Don't Explain
TTITLE12=I Loves You Porgy
TTITLE13=What A Little Moonlight Can Do
TTITLE14=Them There Eyes
TTITLE15=You've Changed
TTITLE16=He's Funny That Way
TTITLE17=Please Don't Talk About Me When I'm Gone
TTITLE18=Lover Come Back To Me
TTITLE19=God Bless The Child
EXTD=YEAR: 1992
EXTT0=
EXTT1=
EXTT2=
EXTT3=
EXTT4=
EXTT5=
EXTT6=
EXTT7=
EXTT8=
EXTT9=
EXTT10=
EXTT11=
EXTT12=
EXTT13=
EXTT14=
EXTT15=
EXTT16=
EXTT17=
EXTT18=
EXTT19=
PLAYORDER=
